{"title":"The Recruit - S02E07","uid":15735151,"size":453875217,"categoryP":"video","categoryS":"tv_shows","magnet":"?xt=urn:btih:d92198a76703d1c8b0db7577734e5429c6e330de&amp;dn=The+Recruit+-+S02E07&amp;tr=udp%3A%2F%2Ftracker.leechers-paradise.org%3A6969&amp;tr=udp%3A%2F%2Fzer0day.ch%3A1337&amp;tr=udp%3A%2F%2Fopen.demonii.com%3A1337&amp;tr=udp%3A%2F%2Ftracker.coppersurfer.tk%3A6969&amp;tr=udp%3A%2F%2Fexodus.desync.com%3A6969","seeders":11,"leechers":2,"uploader":"Bullrout","files":1,"time":1472829659,"description":"The Recruit - S02E07\r\n\r\nTeamwork is tested as seven men remain in the running for their dream prize: an AFL contract. Paul Licuria pops in to the training session while the boys are pushed to their limits. It's a pressure test at the racetrack as Matt races to become king of The Pits and try for two-time captaincy, and Daniel leaves the team unimpressed with his lack of effort around his food. There's no game this week but the recruits puzzle their way through a Fitbit Challenge and one of the favourites makes a shock delist decision.\r\n\r\nComplete name : The Recruit - S02E07.mp4\r\nFormat : MPEG-4\r\nFormat profile : Base Media / Version 2\r\nCodec ID : mp42 (mp42/isom/avc1)\r\nFile size : 433 MiB\r\nDuration : 54mn 20s\r\nOverall bit rate mode : Variable\r\nOverall bit rate : 1 114 Kbps\r\n\r\nVideo\r\nID : 2\r\nFormat : AVC\r\nFormat/Info : Advanced Video Codec\r\nFormat profile :   \r\nFormat settings, CABAC : Yes\r\nFormat settings, ReFrames : 3 frames\r\nCodec ID : avc1\r\nCodec ID/Info : Advanced Video Coding\r\nDuration : 54mn 20s\r\nBit rate mode : Variable\r\nBit rate : 982 Kbps\r\nMaximum bit rate : 1 000 Kbps\r\nWidth : 720 pixels\r\nHeight : 404 pixels\r\nDisplay aspect ratio : 16:9\r\nOriginal display aspect ratio : 16:9\r\nFrame rate mode : Constant\r\nFrame rate : 25.000 fps\r\nStandard : PAL\r\nColor space : YUV\r\nChroma subsampling : 4:2:0\r\nBit depth : 8 bits\r\nScan type : Progressive\r\nBits/(Pixel*Frame) : 0.135\r\nStream size : 382 MiB (88%)\r\nWriting library : x264 core 112\r\nColor range : Limited\r\nColor primaries : BT.601 PAL\r\nTransfer characteristics : BT.470 System B, BT.470 System G\r\nMatrix coefficients : BT.601\r\n\r\nAudio\r\nID : 1\r\nFormat : AAC\r\nFormat/Info : Advanced Audio Codec\r\nFormat profile : LC\r\nCodec ID : 40\r\nDuration : 54mn 20s\r\nBit rate mode : Variable\r\nBit rate : 128 Kbps\r\nMaximum bit rate : 576 Kbps\r\nChannel(s) : 2 channels\r\nChannel positions : Front: L R\r\nSampling rate : 48.0 KHz\r\nFrame rate : 46.875 fps (1024 spf)\r\nCompression mode : Lossy\r\nStream size : 49.8 MiB (11%)","torrent":{"xt":"urn:btih:d92198a76703d1c8b0db7577734e5429c6e330de","amp;dn":"The+Recruit+-+S02E07","amp;tr":["udp%3A%2F%2Ftracker.leechers-paradise.org%3A6969","udp%3A%2F%2Fzer0day.ch%3A1337","udp%3A%2F%2Fopen.demonii.com%3A1337","udp%3A%2F%2Ftracker.coppersurfer.tk%3A6969","udp%3A%2F%2Fexodus.desync.com%3A6969"],"infoHash":"d92198a76703d1c8b0db7577734e5429c6e330de","infoHashBuffer":{"type":"Buffer","data":[217,33,152,167,103,3,209,200,176,219,117,119,115,78,84,41,198,227,48,222]},"announce":[],"urlList":[]}}